<?xml version="1.0" encoding="UTF-8" standalone="no"?>
<!-- Created with Inkscape (http://www.inkscape.org/) -->

<svg
   width="2560"
   height="1440"
   viewBox="0 0 677.33333 381"
   version="1.1"
   id="svg5"
   inkscape:version="1.1 (c68e22c387, 2021-05-23)"
   sodipodi:docname="home.svg"
   xmlns:inkscape="http://www.inkscape.org/namespaces/inkscape"
   xmlns:sodipodi="http://sodipodi.sourceforge.net/DTD/sodipodi-0.dtd"
   xmlns="http://www.w3.org/2000/svg"
   xmlns:svg="http://www.w3.org/2000/svg">
  <sodipodi:namedview
     id="namedview7"
     pagecolor="#ffffff"
     bordercolor="#666666"
     borderopacity="1.0"
     inkscape:pageshadow="2"
     inkscape:pageopacity="0.0"
     inkscape:pagecheckerboard="0"
     inkscape:document-units="px"
     showgrid="false"
     inkscape:zoom="0.18055556"
     inkscape:cx="805.84613"
     inkscape:cy="733.84614"
     inkscape:window-width="1280"
     inkscape:window-height="657"
     inkscape:window-x="1358"
     inkscape:window-y="-8"
     inkscape:window-maximized="1"
     inkscape:current-layer="layer1" />
  <defs
     id="defs2">
    <inkscape:path-effect
       effect="spiro"
       id="path-effect862"
       is_visible="true"
       lpeversion="1" />
    <inkscape:path-effect
       effect="spiro"
       id="path-effect859"
       is_visible="true"
       lpeversion="1" />
  </defs>
  <g
     inkscape:label="Capa 1"
     inkscape:groupmode="layer"
     id="layer1">
    <path
       style="fill:#ff0000;fill-opacity:0.93725502;stroke:#c1dc11;stroke-width:7.93492;stroke-miterlimit:4;stroke-dasharray:0, 87.2842;stroke-dashoffset:79.3492"
       d="m 329.59059,-111.09672 c -32.11639,18.326891 -62.35552,42.798013 -78.21711,76.200821 -7.93079,16.701404 -11.99679,35.40704903 -10.37734,53.82475 1.61945,18.417701 9.117,36.479815 21.98492,49.755771 11.06818,11.419149 25.46718,18.884378 38.64363,27.788457 6.58823,4.452041 12.94512,9.327661 18.34302,15.166161 5.39789,5.83851 9.82751,12.69267 12.12733,20.30426 3.17248,10.49978 2.13584,21.90251 -0.92325,32.43589 -3.05908,10.53338 -8.05108,20.38299 -12.86942,30.23661 -4.81834,9.85361 -9.52502,19.87884 -11.95138,30.5757 -2.42635,10.69687 -2.42985,22.2429 1.9685,32.29101 3.16963,7.24109 8.52743,13.43623 14.9609,18.02866 6.43347,4.59244 13.91492,7.61812 21.64162,9.28485 15.4534,3.33347 31.56193,1.29415 47.02251,-2.00585 15.46059,-3.3 30.70395,-7.85481 46.41718,-9.59097 15.71323,-1.73616 32.30258,-0.43436 46.07494,7.32721 13.57047,7.64779 23.07415,20.7039 32.248,33.29305 9.17384,12.58915 18.92884,25.52515 32.73757,32.73385 10.43915,5.44965 22.63216,7.18655 34.31601,5.71613 11.68386,-1.47041 22.86304,-6.04882 32.72892,-12.47837 19.73176,-12.85909 33.89604,-32.58464 46.21253,-52.65956 34.78868,-56.70284 58.83704,-121.21005 60.85088,-187.703729 2.01384,-66.493675 -19.55169,-134.970137 -65.71513,-182.870047 -41.03251,-42.575974 -99.46591,-66.681124 -158.49887,-70.070724 -59.03297,-3.3896 -118.36913,13.10982 -169.72596,42.41607 z"
       id="path857"
       inkscape:original-d="m 329.59059,-111.09672 c -109.40856,-9.21857 -44.40606,119.8545683 -66.60953,179.781342 -22.20347,59.926788 46.07627,42.172928 69.11398,63.258878 23.03771,21.08594 -15.85006,83.69315 -23.77555,125.53921 -7.92546,41.8461 117.41173,15.36296 176.11715,23.0439 58.70546,7.68097 43.32401,44.01827 64.98557,66.0269 21.66157,22.00859 75.5053,-39.61419 113.25746,-59.4218 37.7522,-19.8076 -3.24253,-247.048846 -4.86425,-370.573776 -1.62173,-123.524924 -218.81626,-18.436094 -328.22483,-27.654654 z"
       inkscape:path-effect="#path-effect859" />
    <path
       style="fill:#ffff00;fill-opacity:0.937255;stroke:#c1dc11;stroke-width:6.5236;stroke-dasharray:0, 71.7595;stroke-dashoffset:65.236"
       d="M 71.645617,103.42385 C 106.41494,81.203626 128.92074,43.406232 163.53915,20.951607 175.17288,13.40559 187.98702,7.7289683 199.19933,-0.43008348 208.54035,-7.2274206 216.77262,-15.864685 221.6845,-26.320872 c 4.91189,-10.456186 6.25259,-22.853236 2.20265,-33.672499 -2.44456,-6.530541 -6.68098,-12.206863 -10.10478,-18.281517 -1.7119,-3.037327 -3.23291,-6.204103 -4.19436,-9.555454 -0.96146,-3.351352 -1.35044,-6.903774 -0.78786,-10.344626 0.7499,-4.586562 3.1541,-8.771612 6.15423,-12.321002 3.00014,-3.54938 6.59619,-6.53739 10.13979,-9.54436 3.5436,-3.00696 7.08028,-6.07932 9.92341,-9.75568 2.84313,-3.67635 4.97913,-8.03526 5.32812,-12.66961 0.33967,-4.5105 -1.06419,-9.08774 -3.66251,-12.79028 -2.59831,-3.70253 -6.3465,-6.54047 -10.51799,-8.28937 -8.34298,-3.49779 -18.0073,-2.60234 -26.50145,0.51043 -8.49415,3.11276 -16.05847,8.27408 -23.53105,13.37315 -7.47257,5.09908 -15.05431,10.24039 -23.56591,13.30512 -15.80768,5.6918 -33.40663,3.6967 -49.57893,-0.85697 -16.172312,-4.55366 -31.583255,-11.55305 -47.800788,-15.94293 -44.934598,-12.16322 -95.434502,-2.58209 -132.213876,25.95454 -36.779376,28.536641 -58.682696,75.57136 -55.911096,122.0404916 1.3858,23.2345664 8.66524,46.1097404 21.07211,65.8032694 12.406871,19.693529 29.925437,36.155114 50.413787,47.200159 20.48835,11.04505 43.904114,16.63469 67.1685494,15.90561 23.2644356,-0.72908 46.3162546,-7.78968 65.9290706,-20.32375 z"
       id="path860"
       inkscape:path-effect="#path-effect862"
       inkscape:original-d="m 71.645617,103.42385 c 5.485933,85.5265 61.262603,-54.981214 91.893533,-82.472243 30.63094,-27.4910175 23.77371,-14.2541795 35.66018,-21.38169048 11.88649,-7.12750002 16.4588,-39.70858152 24.68782,-59.56328752 8.22903,-19.854706 -10.05774,-25.454122 -15.087,-38.181597 -5.02925,-12.727472 21.03062,-29.526832 31.54555,-44.290652 10.51493,-14.76383 -58.51902,4.07298 -87.77891,6.10905 -29.25988,2.03608 -64.919563,-11.19965 -97.379718,-16.7999 -32.460156,-5.60024 10.97261,171.05383 16.458545,256.58032 z" />
  </g>
</svg>
