<?xml version="1.0" encoding="UTF-8" standalone="no"?>
<!-- Created with Inkscape (http://www.inkscape.org/) -->

<svg
   width="2560"
   height="1440"
   viewBox="0 0 677.33333 381"
   version="1.1"
   id="svg5"
   inkscape:version="1.1 (c68e22c387, 2021-05-23)"
   sodipodi:docname="home.svg"
   xmlns:inkscape="http://www.inkscape.org/namespaces/inkscape"
   xmlns:sodipodi="http://sodipodi.sourceforge.net/DTD/sodipodi-0.dtd"
   xmlns="http://www.w3.org/2000/svg"
   xmlns:svg="http://www.w3.org/2000/svg">
  <sodipodi:namedview
     id="namedview7"
     pagecolor="#ffffff"
     bordercolor="#666666"
     borderopacity="1.0"
     inkscape:pageshadow="2"
     inkscape:pageopacity="0.0"
     inkscape:pagecheckerboard="0"
     inkscape:document-units="px"
     showgrid="false"
     inkscape:zoom="0.18055556"
     inkscape:cx="805.84613"
     inkscape:cy="733.84614"
     inkscape:window-width="1280"
     inkscape:window-height="657"
     inkscape:window-x="1358"
     inkscape:window-y="-8"
     inkscape:window-maximized="1"
     inkscape:current-layer="layer1" />
  <defs
     id="defs2">
    <inkscape:path-effect
       effect="spiro"
       id="path-effect862"
       is_visible="true"
       lpeversion="1" />
    <inkscape:path-effect
       effect="spiro"
       id="path-effect859"
       is_visible="true"
       lpeversion="1" />
  </defs>
  <g
     inkscape:label="Capa 1"
     inkscape:groupmode="layer"
     id="layer1">
    <path
       style="fill:#9898ee;fill-opacity:0.93725491;stroke:#c1dc11;stroke-width:7.93492;stroke-miterlimit:4;stroke-dasharray:0, 87.2842;stroke-dashoffset:79.3492"
       d="m 329.59059,-111.09672 c -32.11639,18.326891 -62.35552,42.798013 -78.21711,76.200821 -7.93079,16.701404 -11.99679,35.40704903 -10.37734,53.82475 1.61945,18.417701 9.117,36.479815 21.98492,49.755771 11.06818,11.419149 25.46718,18.884378 38.64363,27.788457 6.58823,4.452041 12.94512,9.327661 18.34302,15.166161 5.39789,5.83851 9.82751,12.69267 12.12733,20.30426 3.17248,10.49978 2.13584,21.90251 -0.92325,32.43589 -3.05908,10.53338 -8.05108,20.38299 -12.86942,30.23661 -4.81834,9.85361 -9.52502,19.87884 -11.95138,30.5757 -2.42635,10.69687 -2.42985,22.2429 1.9685,32.29101 3.16963,7.24109 8.52743,13.43623 14.9609,18.02866 6.43347,4.59244 13.91492,7.61812 21.64162,9.28485 15.4534,3.33347 31.56193,1.29415 47.02251,-2.00585 15.46059,-3.3 30.70395,-7.85481 46.41718,-9.59097 15.71323,-1.73616 32.30258,-0.43436 46.07494,7.32721 13.57047,7.64779 23.07415,20.7039 32.248,33.29305 9.17384,12.58915 18.92884,25.52515 32.73757,32.73385 10.43915,5.44965 22.63216,7.18655 34.31601,5.71613 11.68386,-1.47041 22.86304,-6.04882 32.72892,-12.47837 19.73176,-12.85909 33.89604,-32.58464 46.21253,-52.65956 34.78868,-56.70284 58.83704,-121.21005 60.85088,-187.703729 2.01384,-66.493675 -19.55169,-134.970137 -65.71513,-182.870047 -41.03251,-42.575974 -99.46591,-66.681124 -158.49887,-70.070724 -59.03297,-3.3896 -118.36913,13.10982 -169.72596,42.41607 z"
       id="path857"
       inkscape:original-d="m 329.59059,-111.09672 c -109.40856,-9.21857 -44.40606,119.8545683 -66.60953,179.781342 -22.20347,59.926788 46.07627,42.172928 69.11398,63.258878 23.03771,21.08594 -15.85006,83.69315 -23.77555,125.53921 -7.92546,41.8461 117.41173,15.36296 176.11715,23.0439 58.70546,7.68097 43.32401,44.01827 64.98557,66.0269 21.66157,22.00859 75.5053,-39.61419 113.25746,-59.4218 37.7522,-19.8076 -3.24253,-247.048846 -4.86425,-370.573776 -1.62173,-123.524924 -218.81626,-18.436094 -328.22483,-27.654654 z"
       inkscape:path-effect="#path-effect859" />
    <path
       style="fill:#986bee;fill-opacity:0.93725497;stroke:#c1dc11;stroke-width:6.72481;stroke-dasharray:0, 73.9728;stroke-dashoffset:67.2481"
       d="M 90.124613,96.612708 C 109.07236,86.519685 125.04303,71.740604 140.62035,56.967878 156.19767,42.195152 171.80579,27.113723 190.30889,16.22697 202.98757,8.7671583 216.84504,3.391793 229.18638,-4.6137744 c 9.70214,-6.2935736 18.52235,-14.3664506 23.96792,-24.5687236 2.72278,-5.101136 4.56717,-10.696397 5.15846,-16.448398 0.59129,-5.752002 -0.0899,-11.660095 -2.2112,-17.039245 -2.53644,-6.431874 -6.99529,-11.882794 -10.67536,-17.735965 -1.84004,-2.926586 -3.50201,-5.988978 -4.60312,-9.265896 -1.1011,-3.276919 -1.62778,-6.78728 -1.16969,-10.213762 0.62541,-4.678006 3.05515,-8.968726 6.15913,-12.524036 3.10398,-3.55531 6.87358,-6.4572 10.63955,-9.30189 3.76598,-2.8447 7.57833,-5.67772 10.80001,-9.12673 3.22167,-3.44901 5.85477,-7.59202 6.79294,-12.21746 1.00791,-4.96929 -0.0405,-10.27052 -2.60054,-14.64724 -2.56007,-4.37673 -6.57028,-7.8351 -11.14778,-10.01598 -4.5775,-2.18089 -9.70097,-3.11491 -14.77045,-3.01437 -5.06948,0.10053 -10.08908,1.21454 -14.84899,2.96183 -9.51982,3.49456 -17.91393,9.43422 -26.17696,15.31311 -8.26302,5.8789 -16.64541,11.83135 -26.15371,15.35714 -17.09949,6.3407 -36.21508,4.2238 -53.8276,-0.50865 -17.61253,-4.73245 -34.52204,-11.96818 -52.337832,-15.86622 -41.824348,-9.15104 -87.699054,1.63658 -120.634952,28.99063 -32.935898,27.354053 -52.009506,70.812392 -49.178072,113.532416 2.83143,42.720025 27.740961,83.522272 64.782413,104.99198 18.520726,10.734854 39.7641662,16.750584 61.165696,17.229024 21.40153,0.47844 42.9148,-4.59092 61.80837,-14.655082 z"
       id="path860"
       inkscape:path-effect="#path-effect862"
       inkscape:original-d="M 90.124613,96.612708 C 96.105494,179.97543 156.9144,43.02249 190.30889,16.22697 c 33.3945,-26.795509 25.9186,-13.8935558 38.87749,-20.8407444 12.9589,-6.9471776 17.94373,-38.7039746 26.91518,-58.0563666 8.97146,-19.352393 -10.96516,-24.810146 -16.44817,-37.215623 -5.48299,-12.405476 22.92803,-28.779816 34.39163,-43.170116 11.4636,-14.39032 -63.79868,3.96993 -95.69843,5.95449 -31.89974,1.98457 -70.77668,-10.91631 -106.165432,-16.37487 -35.38875,-5.45856 11.962572,166.726254 17.943455,250.088968 z" />
  </g>
</svg>
